<?xml version="1.0" encoding="UTF-8"?>
<svg id="Capa_2" data-name="Capa 2" xmlns="http://www.w3.org/2000/svg" viewBox="0 0 172.85 248.62">
  <defs>
    <style>
      .cls-1 {
        fill: #88bd24;
        stroke-width: 0px;
      }
    </style>
  </defs>
  <g id="Capa_1-2" data-name="Capa 1">
    <path class="cls-1" d="M4.54,170.63c0-44.66,32.93-77.79,82.73-77.79s83.14,33.13,83.14,77.79-33.13,78-83.14,78S4.54,215.49,4.54,170.63ZM51.67,170.63c0,19.96,15.43,35.19,35.6,35.19s35.81-15.23,35.81-35.19-15.43-34.98-35.81-34.98-35.6,15.23-35.6,34.98Z"/>
    <g>
      <path class="cls-1" d="M91.98,50.64c1.72-1.11,4.93-2.76,7.63-5.02,5.98-5.02,8.85-11.67,8.95-19.48.05-4.2,0-8.41.01-12.61.02-3.59-1.74-5.31-5.33-5.3-11.02.02-22.04.02-33.06,0-2.87,0-4.97,1.21-5.04,4.18-.14,5.79-.51,11.67.26,17.37,1.41,10.52,7.83,17.41,18.32,21.49-8.24.77-15.78,1.19-23.23,2.23-12.02,1.68-24.01,3.63-35.96,5.78-4.49.81-8.25.53-11.3-3.17-4.38-5.31-8.78-10.6-13.23-15.97C12.44,25.75,26.7,15.89,43.9,10.81c13.28-3.93,26.82-7,40.26-10.39,1.22-.31,2.63-.59,3.79-.28,16.6,4.41,33.43,8.14,49.66,13.65,14.03,4.76,25.52,14.08,35.25,25.51-3.4,7.6-8.48,13.86-15.01,18.82-1.57,1.2-4.3,1.63-6.35,1.34-20.25-2.87-40.47-5.97-59.52-8.82Z"/>
      <path class="cls-1" d="M151.71,68.7v21.98c-43.34-10.93-86.48-11.19-129.95.12,0-7.92,0-14.91,0-21.89,50.07-9.76,67.52-12.53,129.95-.2Z"/>
      <path class="cls-1" d="M73.78,16.82h25.82c.58,8.13,1.1,16-5.78,22.04-5.04,4.43-9.01,4.43-14.06-.03-3.77-3.33-5.72-7.55-5.95-12.53-.14-3.01-.03-6.03-.03-9.47Z"/>
    </g>
  </g>
</svg>